<?xml version="1.0" encoding="UTF-8"?>
<svg width="190px" height="36px" viewBox="0 0 190 36" version="1.1" xmlns="http://www.w3.org/2000/svg" xmlns:xlink="http://www.w3.org/1999/xlink">
    <title>kofi-light</title>
    <g id="kofi-light" stroke="none" stroke-width="1" fill="none" fill-rule="evenodd">
        <g id="githubbutton_sm" fill-rule="nonzero">
            <rect id="Rectangle" fill="#FFFFFF" x="0" y="0" width="190" height="36" rx="8"></rect>
            <g id="Group" transform="translate(10.000000, 10.000000)">
                <path d="M17.417931,-1.74638082e-12 L19.0255476,-1.74638082e-12 C22.126324,-1.74638082e-12 24.64,2.51367595 24.64,5.61445238 L24.64,5.94446654 C24.64,9.04524297 22.126324,11.5589189 19.0255476,11.5589189 L17.417931,11.5589189 L17.417931,13.2487143 C17.417931,14.6798419 16.2577729,15.84 14.8266453,15.84 L2.59128571,15.84 C1.16015813,15.84 -2.91766611e-13,14.6798419 -2.91766611e-13,13.2487143 L-2.91766611e-13,1.29564286 C-2.91766611e-13,0.580079066 0.580079066,-1.74638082e-12 1.29564286,-1.74638082e-12 L17.417931,-1.74638082e-12 Z M17.417931,2.99675676 L17.417931,8.56216216 L18.8835042,8.56216216 C20.4203485,8.56216216 21.6662069,7.31630373 21.6662069,5.77945946 C21.6662069,4.24261519 20.4203485,2.99675676 18.8835042,2.99675676 L17.417931,2.99675676 Z" id="Rectangle-2" stroke="#323A47" fill="#FFFFFF"></path>
                <path d="M8.36,5.27684576 C8.76029424,4.10561525 9.70894135,3.52 11.2059413,3.52 C13.4514413,3.52 14.2839059,6.3136503 13.106875,8.14 C12.3221877,9.35756646 10.7398961,10.8975665 8.36,12.76 C5.98010394,10.8975665 4.39781228,9.35756646 3.61312502,8.14 C2.43609412,6.3136503 3.26855871,3.52 5.51405867,3.52 C7.01105865,3.52 7.95970576,4.10561525 8.36,5.27684576 Z" id="Path-2" fill="#FF5E5B"></path>
            </g>
            <path d="M47.2,22.14 C46.5279966,22.14 45.9306693,22.0560008 45.408,21.888 C44.8853307,21.7199992 44.3953356,21.4353353 43.938,21.034 C43.6859987,20.8099989 43.56,20.562668 43.56,20.292 C43.56,20.0773323 43.6393325,19.8883341 43.798,19.725 C43.9566675,19.5616659 44.1479989,19.48 44.372,19.48 C44.5493342,19.48 44.7079993,19.5359994 44.848,19.648 C45.2213352,19.9560015 45.5853316,20.1799993 45.94,20.32 C46.2946684,20.4600007 46.7146642,20.53 47.2,20.53 C47.7226693,20.53 48.1729981,20.4133345 48.551,20.18 C48.9290019,19.9466655 49.118,19.6573351 49.118,19.312 C49.118,18.8919979 48.9313352,18.5630012 48.558,18.325 C48.1846648,18.0869988 47.5920041,17.9073339 46.78,17.786 C44.7359898,17.4873318 43.714,16.5353414 43.714,14.93 C43.714,14.3419971 43.8679985,13.8310022 44.176,13.397 C44.4840015,12.9629978 44.9039973,12.6316678 45.436,12.403 C45.9680027,12.1743322 46.5606634,12.06 47.214,12.06 C47.8020029,12.06 48.3549974,12.1486658 48.873,12.326 C49.3910026,12.5033342 49.8226649,12.7366652 50.168,13.026 C50.438668,13.2406677 50.574,13.4879986 50.574,13.768 C50.574,13.9826677 50.4946675,14.1716659 50.336,14.335 C50.1773325,14.4983341 49.9906677,14.58 49.776,14.58 C49.6359993,14.58 49.5100006,14.5380004 49.398,14.454 C49.1553321,14.257999 48.8170022,14.0783341 48.383,13.915 C47.9489978,13.7516659 47.5593351,13.67 47.214,13.67 C46.6259971,13.67 46.1710016,13.7796656 45.849,13.999 C45.5269984,14.2183344 45.366,14.5053316 45.366,14.86 C45.366,15.2613353 45.531665,15.5646656 45.863,15.77 C46.194335,15.9753344 46.7146631,16.1433327 47.424,16.274 C48.2266707,16.4140007 48.8683309,16.5936656 49.349,16.813 C49.8296691,17.0323344 50.1913321,17.3309981 50.434,17.709 C50.6766679,18.0870019 50.798,18.5886635 50.798,19.214 C50.798,19.8020029 50.632335,20.3176645 50.301,20.761 C49.969665,21.2043355 49.5286694,21.5449988 48.978,21.783 C48.4273306,22.0210012 47.8346698,22.14 47.2,22.14 Z M57.826,14.51 C58.0686679,14.51 58.2693325,14.5916659 58.428,14.755 C58.5866675,14.9183341 58.666,15.1213321 58.666,15.364 L58.666,18.92 C58.666,19.928005 58.3883361,20.7166638 57.833,21.286 C57.2776639,21.8553362 56.4866718,22.14 55.46,22.14 C54.4333282,22.14 53.6446694,21.8553362 53.094,21.286 C52.5433306,20.7166638 52.268,19.928005 52.268,18.92 L52.268,15.364 C52.268,15.1213321 52.3473325,14.9183341 52.506,14.755 C52.6646675,14.5916659 52.8653321,14.51 53.108,14.51 C53.3506679,14.51 53.5513325,14.5916659 53.71,14.755 C53.8686675,14.9183341 53.948,15.1213321 53.948,15.364 L53.948,18.92 C53.948,19.4893362 54.0739987,19.9116653 54.326,20.187 C54.5780013,20.4623347 54.9559975,20.6 55.46,20.6 C55.9733359,20.6 56.3559987,20.4623347 56.608,20.187 C56.8600013,19.9116653 56.986,19.4893362 56.986,18.92 L56.986,15.364 C56.986,15.1213321 57.0653325,14.9183341 57.224,14.755 C57.3826675,14.5916659 57.5833321,14.51 57.826,14.51 Z M64.364,14.37 C65.0080032,14.37 65.5913307,14.535665 66.114,14.867 C66.6366693,15.198335 67.0496652,15.6579971 67.353,16.246 C67.6563349,16.8340029 67.808,17.5013296 67.808,18.248 C67.808,18.9946704 67.6586682,19.6643304 67.36,20.257 C67.0613318,20.8496696 66.6530026,21.311665 66.135,21.643 C65.6169974,21.974335 65.0453365,22.14 64.42,22.14 C63.9719978,22.14 63.5496687,22.0490009 63.153,21.867 C62.7563313,21.6849991 62.4273346,21.4633346 62.166,21.202 L62.166,23.946 C62.166,24.1886679 62.0866675,24.3916658 61.928,24.555 C61.7693325,24.7183342 61.5686679,24.8 61.326,24.8 C61.0833321,24.8 60.8826675,24.7206675 60.724,24.562 C60.5653325,24.4033325 60.486,24.1980013 60.486,23.946 L60.486,15.364 C60.486,15.1213321 60.5653325,14.9183341 60.724,14.755 C60.8826675,14.5916659 61.0833321,14.51 61.326,14.51 C61.5686679,14.51 61.7693325,14.5916659 61.928,14.755 C62.0866675,14.9183341 62.166,15.1213321 62.166,15.364 L62.166,15.42 C62.3900011,15.1399986 62.7026647,14.895001 63.104,14.685 C63.5053353,14.4749989 63.9253311,14.37 64.364,14.37 Z M64.154,20.6 C64.7513363,20.6 65.2413314,20.3760022 65.624,19.928 C66.0066686,19.4799978 66.198,18.9200034 66.198,18.248 C66.198,17.5759966 66.0090019,17.0183355 65.631,16.575 C65.2529981,16.1316644 64.7606697,15.91 64.154,15.91 C63.5473303,15.91 63.0526686,16.1316644 62.67,16.575 C62.2873314,17.0183355 62.096,17.5759966 62.096,18.248 C62.096,18.9200034 62.2873314,19.4799978 62.67,19.928 C63.0526686,20.3760022 63.5473303,20.6 64.154,20.6 Z M73.086,14.37 C73.7300032,14.37 74.3133307,14.535665 74.836,14.867 C75.3586693,15.198335 75.7716652,15.6579971 76.075,16.246 C76.3783349,16.8340029 76.53,17.5013296 76.53,18.248 C76.53,18.9946704 76.3806682,19.6643304 76.082,20.257 C75.7833318,20.8496696 75.3750026,21.311665 74.857,21.643 C74.3389974,21.974335 73.7673365,22.14 73.142,22.14 C72.6939978,22.14 72.2716687,22.0490009 71.875,21.867 C71.4783313,21.6849991 71.1493346,21.4633346 70.888,21.202 L70.888,23.946 C70.888,24.1886679 70.8086675,24.3916658 70.65,24.555 C70.4913325,24.7183342 70.2906679,24.8 70.048,24.8 C69.8053321,24.8 69.6046675,24.7206675 69.446,24.562 C69.2873325,24.4033325 69.208,24.1980013 69.208,23.946 L69.208,15.364 C69.208,15.1213321 69.2873325,14.9183341 69.446,14.755 C69.6046675,14.5916659 69.8053321,14.51 70.048,14.51 C70.2906679,14.51 70.4913325,14.5916659 70.65,14.755 C70.8086675,14.9183341 70.888,15.1213321 70.888,15.364 L70.888,15.42 C71.1120011,15.1399986 71.4246647,14.895001 71.826,14.685 C72.2273353,14.4749989 72.6473311,14.37 73.086,14.37 Z M72.876,20.6 C73.4733363,20.6 73.9633314,20.3760022 74.346,19.928 C74.7286686,19.4799978 74.92,18.9200034 74.92,18.248 C74.92,17.5759966 74.7310019,17.0183355 74.353,16.575 C73.9749981,16.1316644 73.4826697,15.91 72.876,15.91 C72.2693303,15.91 71.7746686,16.1316644 71.392,16.575 C71.0093314,17.0183355 70.818,17.5759966 70.818,18.248 C70.818,18.9200034 71.0093314,19.4799978 71.392,19.928 C71.7746686,20.3760022 72.2693303,20.6 72.876,20.6 Z M85.126,18.262 C85.126,19.0086704 84.958002,19.6783304 84.622,20.271 C84.285998,20.8636696 83.826336,21.3233317 83.243,21.65 C82.659664,21.9766683 82.018004,22.14 81.318,22.14 C80.6086631,22.14 79.9646696,21.9766683 79.386,21.65 C78.8073304,21.3233317 78.3500017,20.8636696 78.014,20.271 C77.6779983,19.6783304 77.51,19.0086704 77.51,18.262 C77.51,17.5153296 77.6779983,16.8456696 78.014,16.253 C78.3500017,15.6603304 78.8073304,15.198335 79.386,14.867 C79.9646696,14.535665 80.6086631,14.37 81.318,14.37 C82.018004,14.37 82.659664,14.535665 83.243,14.867 C83.826336,15.198335 84.285998,15.6603304 84.622,16.253 C84.958002,16.8456696 85.126,17.5153296 85.126,18.262 Z M83.446,18.262 C83.446,17.8046644 83.350334,17.3963351 83.159,17.037 C82.967666,16.6776649 82.711002,16.400001 82.389,16.204 C82.066998,16.007999 81.710002,15.91 81.318,15.91 C80.925998,15.91 80.5690016,16.007999 80.247,16.204 C79.9249984,16.400001 79.6683343,16.6776649 79.477,17.037 C79.2856657,17.3963351 79.19,17.8046644 79.19,18.262 C79.19,18.7193356 79.2856657,19.1253316 79.477,19.48 C79.6683343,19.8346684 79.9249984,20.109999 80.247,20.306 C80.5690016,20.502001 80.925998,20.6 81.318,20.6 C81.710002,20.6 82.066998,20.502001 82.389,20.306 C82.711002,20.109999 82.967666,19.8346684 83.159,19.48 C83.350334,19.1253316 83.446,18.7193356 83.446,18.262 Z M90.418,14.37 C90.698001,14.37 90.933666,14.4493325 91.125,14.608 C91.316334,14.7666675 91.412,14.9533323 91.412,15.168 C91.412,15.4573348 91.337334,15.6743326 91.188,15.819 C91.038666,15.9636674 90.861334,16.036 90.656,16.036 C90.515999,16.036 90.357334,16.0033337 90.18,15.938 C90.152,15.9286666 90.089,15.9100001 89.991,15.882 C89.893,15.8539999 89.788001,15.84 89.676,15.84 C89.433332,15.84 89.200001,15.9146659 88.976,16.064 C88.751999,16.2133341 88.567667,16.4396651 88.423,16.743 C88.278333,17.0463349 88.206,17.4079979 88.206,17.828 L88.206,21.146 C88.206,21.3886679 88.126667,21.5916658 87.968,21.755 C87.809333,21.9183341 87.608668,22 87.366,22 C87.123332,22 86.922667,21.9183341 86.764,21.755 C86.605333,21.5916658 86.526,21.3886679 86.526,21.146 L86.526,15.364 C86.526,15.1213321 86.605333,14.9183341 86.764,14.755 C86.922667,14.5916659 87.123332,14.51 87.366,14.51 C87.608668,14.51 87.809333,14.5916659 87.968,14.755 C88.126667,14.9183341 88.206,15.1213321 88.206,15.364 L88.206,15.546 C88.420668,15.1633314 88.728665,14.8716677 89.13,14.671 C89.531335,14.4703323 89.960664,14.37 90.418,14.37 Z M96.214,20.418 C96.344667,20.418 96.463666,20.4809994 96.571,20.607 C96.678334,20.7330006 96.732,20.8986656 96.732,21.104 C96.732,21.3560013 96.594335,21.5683325 96.319,21.741 C96.043665,21.9136675 95.733335,22 95.388,22 C94.80933,22 94.321669,21.8763346 93.925,21.629 C93.528331,21.3816654 93.33,20.8566707 93.33,20.054 L93.33,16.19 L92.686,16.19 C92.461999,16.19 92.275334,16.1153341 92.126,15.966 C91.976666,15.8166659 91.902,15.6300011 91.902,15.406 C91.902,15.1913323 91.976666,15.0116674 92.126,14.867 C92.275334,14.7223326 92.461999,14.65 92.686,14.65 L93.33,14.65 L93.33,13.754 C93.33,13.5113321 93.411666,13.3083342 93.575,13.145 C93.738334,12.9816658 93.941332,12.9 94.184,12.9 C94.417334,12.9 94.613333,12.9816658 94.772,13.145 C94.930667,13.3083342 95.01,13.5113321 95.01,13.754 L95.01,14.65 L96.004,14.65 C96.228001,14.65 96.414666,14.7246659 96.564,14.874 C96.713334,15.0233341 96.788,15.2099989 96.788,15.434 C96.788,15.6486677 96.713334,15.8283326 96.564,15.973 C96.414666,16.1176674 96.228001,16.19 96.004,16.19 L95.01,16.19 L95.01,19.984 C95.01,20.180001 95.061333,20.3223329 95.164,20.411 C95.266667,20.4996671 95.406666,20.544 95.584,20.544 C95.658667,20.544 95.761333,20.5253335 95.892,20.488 C96.004001,20.4413331 96.111333,20.418 96.214,20.418 Z M110.886,14.37 C111.810005,14.37 112.449332,14.6523305 112.804,15.217 C113.158668,15.7816695 113.336,16.5633283 113.336,17.562 L113.336,21.146 C113.336,21.3886679 113.256667,21.5916658 113.098,21.755 C112.939333,21.9183341 112.738668,22 112.496,22 C112.253332,22 112.052667,21.9183341 111.894,21.755 C111.735333,21.5916658 111.656,21.3886679 111.656,21.146 L111.656,17.562 C111.656,17.0486641 111.555668,16.6450015 111.355,16.351 C111.154332,16.0569985 110.802003,15.91 110.298,15.91 C109.775331,15.91 109.367001,16.0663318 109.073,16.379 C108.778999,16.6916682 108.632,17.0859976 108.632,17.562 L108.632,21.146 C108.632,21.3886679 108.552667,21.5916658 108.394,21.755 C108.235333,21.9183341 108.034668,22 107.792,22 C107.549332,22 107.348667,21.9183341 107.19,21.755 C107.031333,21.5916658 106.952,21.3886679 106.952,21.146 L106.952,17.562 C106.952,17.0486641 106.851668,16.6450015 106.651,16.351 C106.450332,16.0569985 106.098003,15.91 105.594,15.91 C105.071331,15.91 104.663001,16.0663318 104.369,16.379 C104.074999,16.6916682 103.928,17.0859976 103.928,17.562 L103.928,21.146 C103.928,21.3886679 103.848667,21.5916658 103.69,21.755 C103.531333,21.9183341 103.330668,22 103.088,22 C102.845332,22 102.644667,21.9183341 102.486,21.755 C102.327333,21.5916658 102.248,21.3886679 102.248,21.146 L102.248,15.364 C102.248,15.1213321 102.327333,14.9183341 102.486,14.755 C102.644667,14.5916659 102.845332,14.51 103.088,14.51 C103.330668,14.51 103.531333,14.5916659 103.69,14.755 C103.848667,14.9183341 103.928,15.1213321 103.928,15.364 L103.928,15.588 C104.180001,15.2519983 104.499665,14.9650012 104.887,14.727 C105.274335,14.4889988 105.705998,14.37 106.182,14.37 C107.358006,14.37 108.109332,14.8833282 108.436,15.91 C108.650668,15.517998 108.974998,15.1633349 109.409,14.846 C109.843002,14.5286651 110.335331,14.37 110.886,14.37 Z M121.876,18.08 C121.866667,18.3040011 121.778001,18.4859993 121.61,18.626 C121.441999,18.7660007 121.246001,18.836 121.022,18.836 L116.402,18.836 C116.514001,19.3866694 116.770665,19.8183318 117.172,20.131 C117.573335,20.4436682 118.025997,20.6 118.53,20.6 C118.912669,20.6 119.211332,20.5650003 119.426,20.495 C119.640668,20.4249997 119.810999,20.3503337 119.937,20.271 C120.063001,20.1916663 120.149333,20.1380001 120.196,20.11 C120.364001,20.0259996 120.522666,19.984 120.672,19.984 C120.868001,19.984 121.035999,20.0539993 121.176,20.194 C121.316001,20.3340007 121.386,20.4973324 121.386,20.684 C121.386,20.9360013 121.255335,21.1646656 120.994,21.37 C120.732665,21.5846677 120.382669,21.7666659 119.944,21.916 C119.505331,22.0653341 119.062002,22.14 118.614,22.14 C117.829996,22.14 117.146336,21.9766683 116.563,21.65 C115.979664,21.3233317 115.529335,20.8730029 115.212,20.299 C114.894665,19.7249971 114.736,19.0786703 114.736,18.36 C114.736,17.5573293 114.903998,16.8526697 115.24,16.246 C115.576002,15.6393303 116.019331,15.1750016 116.57,14.853 C117.120669,14.5309984 117.708664,14.37 118.334,14.37 C118.950003,14.37 119.530997,14.5379983 120.077,14.874 C120.623003,15.2100017 121.059332,15.6626638 121.386,16.232 C121.712668,16.8013362 121.876,17.41733 121.876,18.08 Z M118.334,15.91 C117.251328,15.91 116.612001,16.4186616 116.416,17.436 L120.084,17.436 L120.084,17.338 C120.046666,16.945998 119.855335,16.6100014 119.51,16.33 C119.164665,16.0499986 118.772669,15.91 118.334,15.91 Z M134.392,18.262 C134.392,19.0086704 134.224002,19.6783304 133.888,20.271 C133.551998,20.8636696 133.092336,21.3233317 132.509,21.65 C131.925664,21.9766683 131.284003,22.14 130.584,22.14 C129.874663,22.14 129.23067,21.9766683 128.652,21.65 C128.07333,21.3233317 127.616002,20.8636696 127.28,20.271 C126.943998,19.6783304 126.776,19.0086704 126.776,18.262 C126.776,17.5153296 126.943998,16.8456696 127.28,16.253 C127.616002,15.6603304 128.07333,15.198335 128.652,14.867 C129.23067,14.535665 129.874663,14.37 130.584,14.37 C131.284003,14.37 131.925664,14.535665 132.509,14.867 C133.092336,15.198335 133.551998,15.6603304 133.888,16.253 C134.224002,16.8456696 134.392,17.5153296 134.392,18.262 Z M132.712,18.262 C132.712,17.8046644 132.616334,17.3963351 132.425,17.037 C132.233666,16.6776649 131.977002,16.400001 131.655,16.204 C131.332998,16.007999 130.976002,15.91 130.584,15.91 C130.191998,15.91 129.835002,16.007999 129.513,16.204 C129.190998,16.400001 128.934334,16.6776649 128.743,17.037 C128.551666,17.3963351 128.456,17.8046644 128.456,18.262 C128.456,18.7193356 128.551666,19.1253316 128.743,19.48 C128.934334,19.8346684 129.190998,20.109999 129.513,20.306 C129.835002,20.502001 130.191998,20.6 130.584,20.6 C130.976002,20.6 131.332998,20.502001 131.655,20.306 C131.977002,20.109999 132.233666,19.8346684 132.425,19.48 C132.616334,19.1253316 132.712,18.7193356 132.712,18.262 Z M139.796,14.37 C140.748005,14.37 141.405998,14.6523305 141.77,15.217 C142.134002,15.7816695 142.316,16.5633283 142.316,17.562 L142.316,21.146 C142.316,21.3886679 142.236667,21.5916658 142.078,21.755 C141.919333,21.9183341 141.718668,22 141.476,22 C141.233332,22 141.032667,21.9183341 140.874,21.755 C140.715333,21.5916658 140.636,21.3886679 140.636,21.146 L140.636,17.562 C140.636,17.0486641 140.528668,16.6450015 140.314,16.351 C140.099332,16.0569985 139.730669,15.91 139.208,15.91 C138.666664,15.91 138.242002,16.0663318 137.934,16.379 C137.625998,16.6916682 137.472,17.0859976 137.472,17.562 L137.472,21.146 C137.472,21.3886679 137.392667,21.5916658 137.234,21.755 C137.075333,21.9183341 136.874668,22 136.632,22 C136.389332,22 136.188667,21.9183341 136.03,21.755 C135.871333,21.5916658 135.792,21.3886679 135.792,21.146 L135.792,15.364 C135.792,15.1213321 135.871333,14.9183341 136.03,14.755 C136.188667,14.5916659 136.389332,14.51 136.632,14.51 C136.874668,14.51 137.075333,14.5916659 137.234,14.755 C137.392667,14.9183341 137.472,15.1213321 137.472,15.364 L137.472,15.602 C137.724001,15.2659983 138.052998,14.9766679 138.459,14.734 C138.865002,14.4913321 139.310664,14.37 139.796,14.37 Z M155.7,20.544 C155.756,20.618667 155.802666,20.7096661 155.84,20.817 C155.877334,20.9243339 155.896,21.0246662 155.896,21.118 C155.896,21.3700013 155.800334,21.5799992 155.609,21.748 C155.417666,21.9160008 155.196,22 154.944,22 C154.822666,22 154.706001,21.9720003 154.594,21.916 C154.481999,21.8599997 154.388667,21.7806672 154.314,21.678 L151.276,17.674 L149.946,18.948 L149.946,21.146 C149.946,21.3980013 149.864334,21.6033325 149.701,21.762 C149.537666,21.9206675 149.325335,22 149.064,22 C148.811999,22 148.604334,21.9183341 148.441,21.755 C148.277666,21.5916658 148.196,21.3886679 148.196,21.146 L148.196,13.054 C148.196,12.8113321 148.279999,12.6083341 148.448,12.445 C148.616001,12.2816658 148.830665,12.2 149.092,12.2 C149.344001,12.2 149.549333,12.2793325 149.708,12.438 C149.866667,12.5966675 149.946,12.8019987 149.946,13.054 L149.946,16.862 L154.426,12.452 C154.640668,12.2373323 154.869332,12.13 155.112,12.13 C155.326668,12.13 155.508666,12.2186658 155.658,12.396 C155.807334,12.5733342 155.882,12.759999 155.882,12.956 C155.882,13.152001 155.798001,13.3339992 155.63,13.502 L152.578,16.414 L155.7,20.544 Z M164.422,18.262 C164.422,19.0086704 164.254002,19.6783304 163.918,20.271 C163.581998,20.8636696 163.122336,21.3233317 162.539,21.65 C161.955664,21.9766683 161.314004,22.14 160.614,22.14 C159.904663,22.14 159.26067,21.9766683 158.682,21.65 C158.10333,21.3233317 157.646002,20.8636696 157.31,20.271 C156.973998,19.6783304 156.806,19.0086704 156.806,18.262 C156.806,17.5153296 156.973998,16.8456696 157.31,16.253 C157.646002,15.6603304 158.10333,15.198335 158.682,14.867 C159.26067,14.535665 159.904663,14.37 160.614,14.37 C161.314004,14.37 161.955664,14.535665 162.539,14.867 C163.122336,15.198335 163.581998,15.6603304 163.918,16.253 C164.254002,16.8456696 164.422,17.5153296 164.422,18.262 Z M162.742,18.262 C162.742,17.8046644 162.646334,17.3963351 162.455,17.037 C162.263666,16.6776649 162.007002,16.400001 161.685,16.204 C161.362998,16.007999 161.006002,15.91 160.614,15.91 C160.221998,15.91 159.865002,16.007999 159.543,16.204 C159.220998,16.400001 158.964334,16.6776649 158.773,17.037 C158.581666,17.3963351 158.486,17.8046644 158.486,18.262 C158.486,18.7193356 158.581666,19.1253316 158.773,19.48 C158.964334,19.8346684 159.220998,20.109999 159.543,20.306 C159.865002,20.502001 160.221998,20.6 160.614,20.6 C161.006002,20.6 161.362998,20.502001 161.685,20.306 C162.007002,20.109999 162.263666,19.8346684 162.455,19.48 C162.646334,19.1253316 162.742,18.7193356 162.742,18.262 Z M166.466,18.542 C166.223332,18.542 166.020334,18.4626675 165.857,18.304 C165.693666,18.1453325 165.612,17.9446679 165.612,17.702 C165.612,17.4686655 165.693666,17.2726675 165.857,17.114 C166.020334,16.9553325 166.223332,16.876 166.466,16.876 L168.902,16.876 C169.144668,16.876 169.347666,16.9576658 169.511,17.121 C169.674334,17.2843341 169.756,17.4873321 169.756,17.73 C169.756,17.9633345 169.674334,18.1569992 169.511,18.311 C169.347666,18.4650008 169.144668,18.542 168.902,18.542 L166.466,18.542 Z M174.964,13.124 C174.646665,13.124 174.422667,13.2149991 174.292,13.397 C174.161333,13.5790009 174.096,13.7773323 174.096,13.992 L174.096,14.65 L175.37,14.65 C175.594001,14.65 175.780666,14.7223326 175.93,14.867 C176.079334,15.0116674 176.154,15.1959989 176.154,15.42 C176.154,15.6440011 176.079334,15.8283326 175.93,15.973 C175.780666,16.1176674 175.594001,16.19 175.37,16.19 L174.096,16.19 L174.096,21.146 C174.096,21.3886679 174.016667,21.5916658 173.858,21.755 C173.699333,21.9183341 173.498668,22 173.256,22 C173.013332,22 172.812667,21.9183341 172.654,21.755 C172.495333,21.5916658 172.416,21.3886679 172.416,21.146 L172.416,16.19 L171.66,16.19 C171.435999,16.19 171.249334,16.1176674 171.1,15.973 C170.950666,15.8283326 170.876,15.6440011 170.876,15.42 C170.876,15.1959989 170.950666,15.0116674 171.1,14.867 C171.249334,14.7223326 171.435999,14.65 171.66,14.65 L172.416,14.65 L172.416,14.006 C172.416,13.3059965 172.656331,12.7366689 173.137,12.298 C173.617669,11.8593311 174.310662,11.64 175.216,11.64 C175.561335,11.64 175.862332,11.7099993 176.119,11.85 C176.375668,11.9900007 176.504,12.2046652 176.504,12.494 C176.504,12.7180011 176.438667,12.8999993 176.308,13.04 C176.177333,13.1800007 176.018668,13.25 175.832,13.25 C175.785333,13.25 175.736334,13.2453334 175.685,13.236 C175.633666,13.2266666 175.58,13.2173334 175.524,13.208 C175.299999,13.1519997 175.113334,13.124 174.964,13.124 Z M178.786,21.146 C178.786,21.3886679 178.706667,21.5916658 178.548,21.755 C178.389333,21.9183341 178.188668,22 177.946,22 C177.703332,22 177.502667,21.9183341 177.344,21.755 C177.185333,21.5916658 177.106,21.3886679 177.106,21.146 L177.106,15.364 C177.106,15.1213321 177.185333,14.9183341 177.344,14.755 C177.502667,14.5916659 177.703332,14.51 177.946,14.51 C178.188668,14.51 178.389333,14.5916659 178.548,14.755 C178.706667,14.9183341 178.786,15.1213321 178.786,15.364 L178.786,21.146 Z M177.932,13.6 C177.614665,13.6 177.390667,13.5486672 177.26,13.446 C177.129333,13.3433328 177.064,13.1613346 177.064,12.9 L177.064,12.634 C177.064,12.3726654 177.133999,12.1906672 177.274,12.088 C177.414001,11.9853328 177.637998,11.934 177.946,11.934 C178.272668,11.934 178.501333,11.9853328 178.632,12.088 C178.762667,12.1906672 178.828,12.3726654 178.828,12.634 L178.828,12.9 C178.828,13.170668 178.760334,13.3549995 178.625,13.453 C178.489666,13.5510005 178.258668,13.6 177.932,13.6 Z" id="SupportmeonKo-f" fill="#323A47"></path>
        </g>
    </g>
</svg>